<svg id="Layer_1" data-name="Layer 1" xmlns="http://www.w3.org/2000/svg" xmlns:xlink="http://www.w3.org/1999/xlink" viewBox="0 0 1056 1177"><defs><style>.cls-1{fill:url(#linear-gradient);}.cls-2{fill:none;}.cls-3{fill:#fff;stroke-miterlimit:10;stroke-width:3px;stroke:url(#linear-gradient-2);}.cls-4{fill:#333;}</style><linearGradient id="linear-gradient" x1="515.31" y1="681.9" x2="515.31" y2="448.7" gradientUnits="userSpaceOnUse"><stop offset="0" stop-color="#d40536"/><stop offset="1" stop-color="#fb7c49"/></linearGradient><linearGradient id="linear-gradient-2" x1="480" y1="481.5" x2="561" y2="481.5" gradientUnits="userSpaceOnUse"><stop offset="0" stop-color="#d40500"/><stop offset="1" stop-color="#fb843b"/></linearGradient></defs><path class="cls-1" d="M546.44,450.26a5.48,5.48,0,0,0-9.22,4.84c5.88,37.21-2.11,75.1-27.38,23.72a5.47,5.47,0,0,0-7.69-2.29C468.72,496.24,444,516.29,444,556c0,30.18,18.5,56.86,38.19,84.4a5.48,5.48,0,0,0,9.94-3.19V545.42a5.49,5.49,0,0,1,5.48-5.48h17.47a24.35,24.35,0,1,1,0,48.69h-2a5.48,5.48,0,0,0-5.48,5.48v82.33a5.47,5.47,0,0,0,10.21,2.72c24.44-42.66,59.52-79.62,67-121.11C591,523.27,582.47,485.12,546.44,450.26Z"/><rect class="cls-2" x="462.43" y="529" width="126.73" height="164"/><circle class="cls-3" cx="520.5" cy="481.5" r="39"/><path class="cls-4" d="M507.23,499.88a23.53,23.53,0,0,0,11.52,3.28c9,0,11.84-5.76,11.76-10.08-.08-7.28-6.64-10.4-13.44-10.4h-3.92V477.4h3.92c5.12,0,11.6-2.64,11.6-8.8,0-4.16-2.64-7.84-9.12-7.84a19.1,19.1,0,0,0-10.4,3.44l-1.84-5.12a24.72,24.72,0,0,1,13.6-4c10.24,0,14.88,6.08,14.88,12.4,0,5.36-3.2,9.92-9.6,12.24v.16c6.4,1.28,11.6,6.08,11.6,13.36,0,8.32-6.48,15.6-19,15.6a26.43,26.43,0,0,1-13.52-3.52Z"/></svg>