<svg id="Layer_1" data-name="Layer 1" xmlns="http://www.w3.org/2000/svg" xmlns:xlink="http://www.w3.org/1999/xlink" viewBox="0 0 1056 1177"><defs><style>.cls-1{fill:url(#linear-gradient);}.cls-2{fill:none;}.cls-3{fill:#fff;stroke-miterlimit:10;stroke-width:3px;stroke:url(#linear-gradient-2);}.cls-4{fill:#333;}</style><linearGradient id="linear-gradient" x1="515.31" y1="681.9" x2="515.31" y2="448.7" gradientUnits="userSpaceOnUse"><stop offset="0" stop-color="#f14d24"/><stop offset="1" stop-color="#fbdd3b"/></linearGradient><linearGradient id="linear-gradient-2" x1="480" y1="481.5" x2="561" y2="481.5" gradientUnits="userSpaceOnUse"><stop offset="0" stop-color="#fb843b"/><stop offset="0.03" stop-color="#fb923a"/><stop offset="0.03" stop-color="#fb953a"/><stop offset="0.35" stop-color="#fca02a"/><stop offset="0.97" stop-color="#ffbe02"/><stop offset="1" stop-color="#ffbf00"/></linearGradient></defs><path class="cls-1" d="M546.44,450.26a5.48,5.48,0,0,0-9.22,4.84c5.88,37.21-2.11,75.1-27.38,23.72a5.47,5.47,0,0,0-7.69-2.29C468.72,496.24,444,516.29,444,556c0,30.18,18.5,56.86,38.19,84.4a5.48,5.48,0,0,0,9.94-3.19V545.42a5.49,5.49,0,0,1,5.48-5.48h17.47a24.35,24.35,0,1,1,0,48.69h-2a5.48,5.48,0,0,0-5.48,5.48v82.33a5.47,5.47,0,0,0,10.21,2.72c24.44-42.66,59.52-79.62,67-121.11C591,523.27,582.47,485.12,546.44,450.26Z"/><rect class="cls-2" x="462.43" y="529" width="126.73" height="164"/><circle class="cls-3" cx="520.5" cy="481.5" r="39"/><path class="cls-4" d="M503.55,506v-4.32l5.52-5.36c13.28-12.64,19.28-19.36,19.36-27.2,0-5.28-2.56-10.16-10.32-10.16a17.71,17.71,0,0,0-11,4.4l-2.24-5a22.82,22.82,0,0,1,14.72-5.28c11.2,0,15.92,7.68,15.92,15.12,0,9.6-7,17.36-17.92,27.92L513.39,500v.16h23.36V506Z"/></svg>