<svg id="Layer_1" data-name="Layer 1" xmlns="http://www.w3.org/2000/svg" xmlns:xlink="http://www.w3.org/1999/xlink" viewBox="0 0 1103 1177"><defs><style>.cls-1{fill:url(#linear-gradient);}.cls-2{fill:none;}.cls-3{fill:#fff;stroke-miterlimit:10;stroke-width:3px;stroke:url(#linear-gradient-2);}.cls-4{fill:#333;}</style><linearGradient id="linear-gradient" x1="515.31" y1="681.9" x2="515.31" y2="448.7" gradientUnits="userSpaceOnUse"><stop offset="0" stop-color="#f14d24"/><stop offset="1" stop-color="#fbdd3b"/></linearGradient><linearGradient id="linear-gradient-2" x1="480" y1="481.5" x2="561" y2="481.5" gradientUnits="userSpaceOnUse"><stop offset="0" stop-color="#fb843b"/><stop offset="0.03" stop-color="#fb923a"/><stop offset="0.03" stop-color="#fb953a"/><stop offset="0.35" stop-color="#fca02a"/><stop offset="0.97" stop-color="#ffbe02"/><stop offset="1" stop-color="#ffbf00"/></linearGradient></defs><path class="cls-1" d="M546.44,450.26a5.48,5.48,0,0,0-9.22,4.84c5.88,37.21-2.11,75.1-27.38,23.72a5.47,5.47,0,0,0-7.69-2.29C468.72,496.24,444,516.29,444,556c0,30.18,18.5,56.86,38.19,84.4a5.48,5.48,0,0,0,9.94-3.19V545.42a5.49,5.49,0,0,1,5.48-5.48h17.47a24.35,24.35,0,1,1,0,48.69h-2a5.48,5.48,0,0,0-5.48,5.48v82.33a5.47,5.47,0,0,0,10.21,2.72c24.44-42.66,59.52-79.62,67-121.11C591,523.27,582.47,485.12,546.44,450.26Z"/><rect class="cls-2" x="462.43" y="529" width="126.73" height="164"/><circle class="cls-3" cx="520.5" cy="481.5" r="39"/><path class="cls-4" d="M534.59,461.88H514.75l-2,13.36a27.8,27.8,0,0,1,4.24-.32,22,22,0,0,1,11.2,2.8,14.82,14.82,0,0,1,7.44,13.36c0,10.16-8.08,17.76-19.36,17.76-5.68,0-10.48-1.6-13-3.2l1.76-5.36a23.29,23.29,0,0,0,11.12,2.88c6.64,0,12.32-4.32,12.32-11.28-.08-6.72-4.56-11.52-15-11.52a53.79,53.79,0,0,0-7.2.56l3.36-25h24.88Z"/></svg>